<svg width="97" height="48" viewBox="0 0 97 48" fill="currentColor" xmlns="http://www.w3.org/2000/svg">
<path d="M34.2823 10.98V9.93H45.7973V10.98H34.2823ZM38.3423 24V13.29H34.2823V12.24H45.7973V13.29H41.7023V24H40.6523V13.29H39.3923V24H38.3423ZM54.5895 17.175L49.6195 9.93H50.9145L53.8195 14.165L56.7245 9.93H58.0195L54.4845 15.145L55.2195 16.23L59.5595 9.93H60.8545L55.8845 17.175H54.5895ZM51.7545 17.175L46.7845 9.93H48.0795L53.0495 17.175H51.7545ZM54.4495 24V18.015H55.4995V24H54.4495ZM52.1395 24V18.015H53.1895V24H52.1395ZM65.2101 24V9.93H66.2601V20.64H72.5251V21.69H66.2601V22.95H72.5251V24H65.2101ZM62.9001 24V9.93H63.9501V24H62.9001ZM77.0628 24V9.93H85.4278V10.98H78.1128V12.24H85.4278V13.29H78.1128V15.285H84.3078V16.335H78.1128V17.595H84.3078V18.645H78.1128V20.64H85.4278V21.69H78.1128V22.95H85.4278V24H77.0628ZM74.7528 24V9.93H75.8028V24H74.7528ZM40.2185 43L36.5085 28.93H37.5935L39.5535 36.385L41.5485 28.93H42.6335L40.1135 38.45L40.7435 40.935L43.9285 28.93H45.0135L44.6285 30.365L46.2035 36.35L48.1985 28.93H49.2835L46.7635 38.45L47.3935 40.9L50.5785 28.93H51.6635L47.9535 43H46.8685L44.1035 32.43L43.4385 34.88L45.5735 43H44.4885L42.8785 36.98L41.3035 43H40.2185ZM37.8385 43L34.1285 28.93H35.2135L38.9235 43H37.8385ZM56.0405 43V28.93H57.0905V43H56.0405ZM53.7305 43V28.93H54.7805V43H53.7305ZM62.4928 43V28.93H67.9878C69.1311 28.9533 70.1111 29.35 70.9278 30.12C71.7445 30.8667 72.1528 31.905 72.1528 33.235C72.1528 34.5883 71.7445 35.65 70.9278 36.42C70.1111 37.1667 69.1311 37.54 67.9878 37.54H63.5428V43H62.4928ZM60.1828 43V28.93H61.2328V43H60.1828ZM67.9178 29.98H63.5428V31.24H67.9878C68.5478 31.2633 68.9911 31.4617 69.3178 31.835C69.6678 32.185 69.8428 32.6517 69.8428 33.235C69.8428 33.8183 69.6678 34.2967 69.3178 34.67C68.9678 35.0433 68.5245 35.23 67.9878 35.23H63.5428V36.49H67.9178C68.8045 36.49 69.5511 36.2217 70.1578 35.685C70.7878 35.125 71.1028 34.3083 71.1028 33.235C71.1028 32.1617 70.7878 31.3567 70.1578 30.82C69.5511 30.26 68.8045 29.98 67.9178 29.98ZM67.9178 32.29H63.5428V34.18H67.9178C68.1745 34.18 68.3845 34.11 68.5478 33.97C68.7111 33.8067 68.7928 33.5617 68.7928 33.235C68.7928 32.9083 68.7111 32.675 68.5478 32.535C68.3845 32.3717 68.1745 32.29 67.9178 32.29ZM77.2166 43V28.93H85.5816V29.98H78.2666V31.24H85.5816V32.29H78.2666V34.285H84.4616V35.335H78.2666V36.595H84.4616V37.645H78.2666V39.64H85.5816V40.69H78.2666V41.95H85.5816V43H77.2166ZM74.9066 43V28.93H75.9566V43H74.9066Z" fill="black"/>
<path d="M19.3653 37.8812C17.2945 37.8812 15.5882 37.4875 14.2466 36.7C12.9049 35.8833 12.1757 34.8042 12.0591 33.4625L13.3278 33.1125C13.3278 34.1042 13.882 34.9354 14.9903 35.6062C16.1278 36.2479 17.5862 36.5688 19.3653 36.5688C21.2028 36.5688 22.6903 36.2333 23.8278 35.5625C24.9945 34.8917 25.5778 34.0312 25.5778 32.9812C25.5778 31.9896 25.0966 31.1875 24.1341 30.575C23.1716 29.9625 21.8591 29.4229 20.1966 28.9562L17.4841 28.1687C13.8674 27.1187 11.1403 25.7917 9.30283 24.1875C7.46533 22.5833 6.54658 20.3812 6.54658 17.5812C6.54658 15.5687 7.10075 13.7896 8.20908 12.2437C9.34658 10.6687 10.8778 9.42917 12.8028 8.525C14.757 7.62083 16.9591 7.16875 19.4091 7.16875C21.6257 7.16875 23.6237 7.53333 25.4028 8.2625C27.2112 8.9625 28.6987 9.96875 29.8653 11.2812C31.0612 12.5937 31.8195 14.125 32.1403 15.875L30.8716 16.225C30.6091 14.6792 29.9528 13.3229 28.9028 12.1562C27.8528 10.9896 26.5112 10.0854 24.8778 9.44375C23.2445 8.80208 21.4216 8.48125 19.4091 8.48125C17.1924 8.48125 15.2091 8.88958 13.4591 9.70625C11.7382 10.4937 10.3674 11.5729 9.34658 12.9437C8.35492 14.3146 7.85908 15.8896 7.85908 17.6687C7.85908 20.0604 8.69033 21.9854 10.3528 23.4437C12.0445 24.8729 14.5382 26.0396 17.8341 26.9437L20.5466 27.6875C22.5591 28.2417 24.1195 28.9125 25.2278 29.7C26.3362 30.4875 26.8903 31.5521 26.8903 32.8937C26.8903 34.3812 26.2049 35.5917 24.8341 36.525C23.4632 37.4292 21.6403 37.8812 19.3653 37.8812ZM19.3653 40.7687C16.6237 40.7687 14.3195 40.1708 12.4528 38.975C10.6153 37.75 9.53617 36.1604 9.21533 34.2062L10.5278 33.8562C10.7612 35.5479 11.6653 36.9042 13.2403 37.925C14.8445 38.9458 16.8862 39.4562 19.3653 39.4562C21.1737 39.4562 22.7632 39.1792 24.1341 38.625C25.5049 38.0708 26.5695 37.2979 27.3278 36.3062C28.0862 35.3146 28.4653 34.1771 28.4653 32.8937C28.4653 31.1146 27.7945 29.7146 26.4528 28.6937C25.1112 27.6437 23.2591 26.7979 20.8966 26.1562L18.2278 25.4125C15.3987 24.625 13.2257 23.6333 11.7091 22.4375C10.1924 21.2417 9.43408 19.6521 9.43408 17.6687C9.43408 16.1812 9.857 14.8687 10.7028 13.7312C11.5778 12.5937 12.7737 11.7042 14.2903 11.0625C15.807 10.3917 17.5132 10.0562 19.4091 10.0562C21.1882 10.0562 22.7778 10.3333 24.1778 10.8875C25.607 11.4125 26.7737 12.1708 27.6778 13.1625C28.582 14.1542 29.1362 15.3062 29.3403 16.6187L28.0278 16.9687C27.8237 15.2771 26.9195 13.9208 25.3153 12.9C23.7403 11.8792 21.7716 11.3687 19.4091 11.3687C17.7466 11.3687 16.2591 11.6458 14.9466 12.2C13.6341 12.725 12.5987 13.4687 11.8403 14.4312C11.1112 15.3646 10.7466 16.4437 10.7466 17.6687C10.7466 19.3312 11.4028 20.6437 12.7153 21.6062C14.057 22.5687 15.9966 23.4146 18.5341 24.1437L21.1591 24.8875C23.8716 25.6458 25.9862 26.6521 27.5028 27.9062C29.0195 29.1312 29.7778 30.7937 29.7778 32.8937C29.7778 34.4396 29.3403 35.8104 28.4653 37.0062C27.5903 38.1729 26.3653 39.0917 24.7903 39.7625C23.2445 40.4333 21.4362 40.7687 19.3653 40.7687ZM19.3653 43.6563C17.0903 43.6563 15.0341 43.3063 13.1966 42.6062C11.3882 41.8771 9.88617 40.8708 8.69033 39.5875C7.52367 38.275 6.76533 36.7292 6.41533 34.95L7.68408 34.6C7.97575 36.175 8.632 37.5458 9.65283 38.7125C10.7028 39.85 12.0591 40.7396 13.7216 41.3812C15.3841 42.0229 17.2653 42.3437 19.3653 42.3437C21.757 42.3437 23.8424 41.95 25.6216 41.1625C27.4299 40.3458 28.8299 39.2375 29.8216 37.8375C30.8424 36.4083 31.3528 34.7604 31.3528 32.8937C31.3528 30.4146 30.4924 28.4312 28.7716 26.9437C27.0507 25.4562 24.6299 24.2604 21.5091 23.3562L18.9278 22.6125C16.7987 22 15.1653 21.3292 14.0278 20.6C12.8903 19.8708 12.3216 18.8937 12.3216 17.6687C12.3216 16.2396 12.9924 15.1021 14.3341 14.2562C15.6757 13.3812 17.3674 12.9437 19.4091 12.9437C21.3924 12.9437 23.0257 13.3521 24.3091 14.1687C25.5924 14.9854 26.3216 16.05 26.4966 17.3625L25.2278 17.7125C25.1695 16.6917 24.6007 15.8604 23.5216 15.2187C22.4716 14.5771 21.1007 14.2562 19.4091 14.2562C17.8049 14.2562 16.4341 14.5625 15.2966 15.175C14.1882 15.7875 13.6341 16.5896 13.6341 17.5812C13.6341 18.4854 14.1445 19.2146 15.1653 19.7687C16.2153 20.3229 17.5862 20.8479 19.2778 21.3437L21.7716 22.0875C25.3007 23.1375 27.9987 24.5083 29.8653 26.2C31.732 27.8625 32.6653 30.1229 32.6653 32.9812C32.6653 35.0521 32.0966 36.9042 30.9591 38.5375C29.8507 40.1417 28.2903 41.3958 26.2778 42.3C24.2945 43.2042 21.9903 43.6563 19.3653 43.6563Z" fill="black"/>
</svg>
