<svg width="25" height="25" viewBox="0 0 25 25" fill="currentColor" xmlns="http://www.w3.org/2000/svg">
<path fill-rule="evenodd" clip-rule="evenodd" d="M16.3414 12.9996C17.4907 12.9996 18.6087 13.3745 19.5257 14.0673C20.4427 14.7602 21.1087 15.7332 21.4227 16.8388L22.3414 16.8396C22.7389 16.8396 23.0614 17.1621 23.0614 17.5596V18.9996C23.0614 19.3971 22.7389 19.7196 22.3414 19.7196H21.4227C21.1086 20.8251 20.4426 21.7981 19.5256 22.4909C18.6086 23.1837 17.4907 23.5585 16.3414 23.5585C15.1921 23.5585 14.0742 23.1837 13.1572 22.4909C12.2402 21.7981 11.5742 20.8251 11.2602 19.7196H2.66141C2.47045 19.7196 2.28732 19.6437 2.15229 19.5087C2.01726 19.3737 1.94141 19.1905 1.94141 18.9996V17.5596C1.94141 17.1621 2.26391 16.8396 2.66141 16.8396L11.2602 16.8388C11.5741 15.7332 12.2401 14.7602 13.1571 14.0673C14.0741 13.3745 15.1921 12.9996 16.3414 12.9996ZM16.3414 15.8796C15.7049 15.8796 15.0944 16.1324 14.6443 16.5825C14.1943 17.0326 13.9414 17.6431 13.9414 18.2796C13.9414 18.9161 14.1943 19.5265 14.6443 19.9766C15.0944 20.4267 15.7049 20.6796 16.3414 20.6796C16.9779 20.6796 17.5884 20.4267 18.0385 19.9766C18.4885 19.5265 18.7414 18.9161 18.7414 18.2796C18.7414 17.6431 18.4885 17.0326 18.0385 16.5825C17.5884 16.1324 16.9779 15.8796 16.3414 15.8796ZM9.14141 2.43958C10.2907 2.43959 11.4087 2.81446 12.3257 3.50732C13.2427 4.20018 13.9087 5.17322 14.2227 6.27883L22.3414 6.27958C22.7389 6.27958 23.0614 6.60208 23.0614 6.99958V8.43958C23.0614 8.83708 22.7389 9.15958 22.3414 9.15958H14.2227C13.9086 10.2651 13.2426 11.2381 12.3256 11.9309C11.4086 12.6237 10.2907 12.9985 9.14141 12.9985C7.99212 12.9985 6.87419 12.6237 5.9572 11.9309C5.0402 11.2381 4.37418 10.2651 4.06016 9.15958H2.66141C2.47045 9.15958 2.28732 9.08372 2.15229 8.94869C2.01726 8.81367 1.94141 8.63053 1.94141 8.43958V6.99958C1.94141 6.60208 2.26391 6.27958 2.66141 6.27958L4.06016 6.27883C4.37413 5.17322 5.04013 4.20018 5.95713 3.50732C6.87413 2.81446 7.99208 2.43959 9.14141 2.43958ZM9.14141 5.31958C8.50489 5.31958 7.89444 5.57243 7.44435 6.02252C6.99426 6.47261 6.74141 7.08306 6.74141 7.71957C6.74141 8.35609 6.99426 8.96654 7.44435 9.41663C7.89444 9.86672 8.50489 10.1196 9.14141 10.1196C9.77793 10.1196 10.3884 9.86672 10.8385 9.41663C11.2885 8.96654 11.5414 8.35609 11.5414 7.71957C11.5414 7.08306 11.2885 6.47261 10.8385 6.02252C10.3884 5.57243 9.77793 5.31958 9.14141 5.31958Z" fill="#333333"/>
</svg>
