<?xml version="1.0" standalone="no"?>
<!DOCTYPE svg PUBLIC "-//W3C//DTD SVG 20010904//EN"
 "http://www.w3.org/TR/2001/REC-SVG-20010904/DTD/svg10.dtd">
<svg version="1.0" xmlns="http://www.w3.org/2000/svg"
 width="32.000000pt" height="22.000000pt" viewBox="0 0 32.000000 22.000000"
 preserveAspectRatio="xMidYMid meet">

<g transform="translate(0.000000,22.000000) scale(0.100000,-0.100000)"
fill="#000000" stroke="none">
<path d="M15 187 c-8 -12 -15 -28 -14 -37 0 -12 2 -12 7 2 6 15 9 13 19 -8 10
-22 10 -25 -3 -20 -21 8 -17 -2 6 -14 15 -8 27 -7 47 5 16 9 19 13 8 10 -11
-4 -27 -9 -35 -12 -9 -3 -8 1 4 11 17 14 14 18 -11 15 -10 -1 -24 41 -17 52
10 16 23 10 19 -9 -3 -17 1 -18 34 -12 21 4 46 5 56 4 17 -2 17 -1 2 13 -10
10 -36 17 -62 19 -36 1 -49 -3 -60 -19z m109 5 c3 -5 -14 -9 -37 -9 -39 -1
-40 -1 -12 7 42 11 43 11 49 2z"/>
<path d="M184 189 c-19 -22 -18 -53 5 -73 15 -13 24 -15 46 -6 15 6 30 9 32 6
3 -2 -5 -7 -17 -11 l-22 -7 23 -12 c17 -9 26 -9 31 -2 5 6 8 2 8 -10 0 -19 -6
-22 -42 -22 -24 0 -47 -1 -53 -2 -5 -1 -14 -2 -20 0 -5 1 -2 -7 8 -18 13 -14
29 -18 64 -17 48 2 74 22 72 54 0 12 -3 11 -10 -4 -7 -17 -8 -15 -6 10 2 27
-3 32 -45 53 -27 12 -48 27 -48 33 0 6 19 9 48 7 36 -2 47 0 47 12 0 8 -7 13
-15 11 -40 -11 -78 -12 -85 -2 -5 8 1 10 18 5 14 -3 32 -2 41 3 11 6 3 8 -25
8 -24 0 -46 -6 -55 -16z m20 -23 c-3 -8 4 -21 16 -29 19 -13 19 -15 4 -21 -9
-3 -23 -1 -30 5 -14 12 -19 51 -8 62 11 10 24 -2 18 -17z m90 -64 c2 -4 -4 -9
-15 -9 -11 -1 -17 2 -14 8 7 11 22 12 29 1z m6 -64 c0 -8 -5 -9 -60 -12 -38
-2 -53 2 -46 12 6 10 106 9 106 0z"/>
<path d="M197 129 c7 -7 15 -10 18 -7 3 3 -2 9 -12 12 -14 6 -15 5 -6 -5z"/>
<path d="M90 104 c-21 -12 -21 -14 -4 -9 17 4 21 1 20 -17 -1 -20 -6 -23 -43
-22 -31 0 -40 -3 -33 -12 6 -6 21 -9 34 -7 13 3 32 0 43 -6 15 -10 14 -10 -9
-5 -15 3 -34 2 -43 -3 -11 -7 -5 -9 23 -9 21 1 46 7 54 14 16 13 19 58 5 80
-10 15 -16 15 -47 -4z m46 -32 c2 -36 -5 -45 -26 -31 -12 7 -12 9 -1 9 8 0 11
7 8 20 -3 11 -1 18 4 14 5 -3 9 -1 9 5 0 5 -5 12 -10 14 -6 3 -5 4 2 3 7 -1
13 -17 14 -34z"/>
</g>
</svg>
