<svg width="16" height="16" viewBox="0 0 16 16" fill="none" xmlns="http://www.w3.org/2000/svg">
<g clip-path="url(#clip0_83_784)">
<path d="M9.54643 0.738688C10.6313 1.60218 11.4035 2.4016 11.6197 3.81934C11.6798 5.26251 11.2813 6.31076 10.3078 7.38025C9.5403 8.00321 8.86136 8.15234 7.8714 8.31734C7.8714 10.7294 7.8714 13.1414 7.8714 15.6266C7.68586 15.6266 7.50032 15.6266 7.30915 15.6266C7.21638 12.0085 7.21638 12.0085 7.12173 8.31734C6.56511 8.13179 6.00848 7.94625 5.43499 7.75509C4.90788 7.32169 4.90788 7.32169 4.49791 6.818C4.35875 6.65179 4.21959 6.48558 4.07622 6.31432C3.50067 5.22488 3.42179 4.12903 3.74824 2.94083C4.15081 1.89932 4.87316 1.10254 5.87132 0.601786C6.99629 0.251465 8.47821 0.181871 9.54643 0.738688ZM5.65754 2.53086C5.36236 2.99693 5.35166 3.27772 5.43499 3.81934C5.95143 4.24412 5.95143 4.24412 6.47749 4.17075C6.95206 4.04573 6.95206 4.04573 7.20373 3.66707C7.34429 3.25709 7.34429 3.25709 7.20373 2.84712C6.95107 2.46945 6.95107 2.46945 6.47749 2.33173C5.99865 2.27616 5.99865 2.27616 5.65754 2.53086Z" fill="#6A2718"/>
</g>
<defs>
<clipPath id="clip0_83_784">
<rect width="15.1807" height="15.1807" fill="currentColor" transform="translate(0 0.445801)"/>
</clipPath>
</defs>
</svg>
